<svg width="203" height="214" viewBox="0 0 203 214" fill="none" xmlns="http://www.w3.org/2000/svg">
<path id="Vector" d="M203 98.7886C202.415 72.3898 191.465 47.2683 172.493 28.8038C153.522 10.3393 128.039 -3.27667e-06 101.5 -4.43671e-06C74.9614 -5.59675e-06 49.4778 10.3393 30.5065 28.8038C11.5353 47.2682 0.584744 72.3898 1.09406e-05 98.7886L2.11633e-05 214L203 214L203 98.7886ZM36.858 98.7886C36.8535 100.281 36.2557 101.711 35.1949 102.767C34.1342 103.822 32.6969 104.417 31.1968 104.421C29.7072 104.415 28.2797 103.827 27.2219 102.783C26.6905 102.261 26.2679 101.639 25.9786 100.953C25.6892 100.268 25.5387 99.5321 25.5356 98.7886C25.553 78.7482 33.5619 59.5335 47.8042 45.3627C62.0466 31.192 81.3583 23.2233 101.5 23.2061C103 23.2105 104.437 23.8054 105.498 24.8608C106.559 25.9162 107.157 27.3463 107.161 28.8388C107.157 30.3313 106.559 31.7615 105.498 32.8169C104.437 33.8722 103 34.4671 101.5 34.4715C84.3677 34.5097 67.948 41.2982 55.8336 53.3517C43.7192 65.4053 36.8964 81.7424 36.858 98.7886Z" fill="white" fill-opacity="0.05"/>
</svg>
