<?xml version="1.0" encoding="utf-8"?>
<!-- Generator: Adobe Illustrator 27.5.0, SVG Export Plug-In . SVG Version: 6.00 Build 0)  -->
<svg version="1.1" xmlns="http://www.w3.org/2000/svg" xmlns:xlink="http://www.w3.org/1999/xlink" x="0px" y="0px"
	 viewBox="0 0 750 500" style="enable-background:new 0 0 750 500;" xml:space="preserve">
<g id="BACKGROUND">
	<rect x="125" style="fill:#FFFFFF;" width="500" height="500"/>
</g>
<g id="OBJECTS">
	<g>
		<g>
			<g style="opacity:0.44;">
				<path style="fill:#C3E7FD;" d="M109.189,432.524l522.17,0.304c20.949-42.203,42.111-85.589,46.789-132.453
					c4.715-47.236-10.85-99.511-50.394-125.774c-32.484-21.574-74.498-22.035-113.164-16.983
					c-38.666,5.051-77.319,14.863-116.133,11.114c-37.232-3.595-72.241-19.537-104.241-38.906
					c-28.657-17.346-56.336-37.957-88.875-45.914c-51.83-12.673-108.953,11.159-141.704,53.281S21.29,236.784,31.9,289.075
					C41.996,338.828,70.427,392.873,109.189,432.524z"/>
			</g>
			<g style="opacity:0.44;">
				<path style="fill:#C3E7FD;" d="M638.933,432.493l-534.188,0.336c-21.43-44.883-43.078-91.025-47.863-140.867
					c-4.823-50.237,11.102-105.834,51.557-133.766c33.232-22.945,76.213-23.436,115.769-18.065
					c39.556,5.371,79.098,15.805,118.806,11.818c38.089-3.825,73.904-20.78,106.641-41.38c29.317-18.449,57.633-40.37,90.922-48.833
					c53.023-13.48,111.46,11.865,144.964,56.663c33.504,44.798,43.319,105.917,32.463,161.53
					C707.674,332.843,678.588,390.322,638.933,432.493z"/>
			</g>
			<g>
				<path style="fill:#33B7DB;" d="M655.765,269.438c-21.929,0-39.901,16.887-41.654,38.364l-17.409,8.843l19.174,7.144
					c5.328,16.959,21.171,29.262,39.888,29.262c23.089,0,41.806-18.717,41.806-41.806
					C697.571,288.155,678.854,269.438,655.765,269.438z"/>
				<rect x="578.006" y="375.951" style="fill:#6DABB5;" width="9.838" height="31.905"/>
				<path style="fill:#FFFFFF;" d="M610.67,381.381h-33.958v-5.494c0-3.507,2.843-6.35,6.35-6.35h21.258
					c3.507,0,6.35,2.843,6.35,6.35V381.381z"/>
				<path style="fill:#86C3D1;" d="M619.252,386.812h-89.808c-2.376,0-4.302-1.926-4.302-4.302v-2.258
					c0-2.376,1.926-4.302,4.302-4.302h89.808c2.376,0,4.302,1.926,4.302,4.302v2.258
					C623.554,384.886,621.628,386.812,619.252,386.812z"/>
				<g>
					<path style="fill:#6DABB5;" d="M550.079,322.747c-16.864,6.972-24.927,26.907-26.648,43.933
						c-1.846,18.268,5.945,36.802,18.86,49.514c4.598,4.525,11.672-2.542,7.071-7.071c-10.599-10.432-16.333-24.298-16.12-39.171
						c0.182-12.749,6.567-32.218,19.495-37.562C558.61,329.963,556.039,320.284,550.079,322.747L550.079,322.747z"/>
				</g>
				<path style="fill:#FFFFFF;" d="M532.151,381.381c0-1.755-1.423-3.178-3.178-3.178c-1.755,0-3.178,1.423-3.178,3.178
					c0,1.755,1.423,3.178,3.178,3.178C530.729,384.559,532.151,383.136,532.151,381.381z"/>
				<g>
					
						<rect x="536.282" y="288.298" transform="matrix(0.7698 -0.6383 0.6383 0.7698 -66.6855 415.2925)" style="fill:#6DABB5;" width="12.318" height="23.609"/>
					<polygon style="fill:#FFFFFF;" points="533.767,306.453 571.825,358.6 594.478,339.819 549.67,293.268 					"/>
					<polygon style="fill:#2D3870;" points="593.259,353.193 585.197,359.877 576.144,350.403 585.627,342.542 					"/>
					<polygon style="fill:#9ED5E7;" points="539.546,314.371 556.474,300.337 551.954,295.64 535.707,309.11 					"/>
					<polygon style="fill:#9ED5E7;" points="550.751,329.725 569.667,314.042 561.466,305.522 543.786,320.18 					"/>
					<polygon style="fill:#9ED5E7;" points="558.464,340.294 578.748,323.477 574.227,318.78 554.625,335.033 					"/>
					<path style="fill:#2D3870;" d="M543.466,288.328l-12.786,10.601c-1.691,1.402-4.197,1.167-5.599-0.523l0,0
						c-1.402-1.691-1.167-4.197,0.523-5.599l12.786-10.601c1.69-1.402,4.197-1.167,5.599,0.523l0,0
						C545.391,284.42,545.157,286.926,543.466,288.328z"/>
					<path style="fill:#6DABB5;" d="M595.153,342.127l-21.181,17.561c-1.821,1.509-4.52,1.257-6.03-0.563l0,0
						c-1.509-1.821-1.257-4.52,0.563-6.03l21.181-17.561c1.821-1.509,4.52-1.257,6.029,0.563h0
						C597.226,337.918,596.974,340.617,595.153,342.127z"/>
				</g>
				<g>
					<g>
						<path style="fill:#5182B7;" d="M651.725,332.465c-0.001,0-0.002,0-0.003,0c-0.534-0.001-1.027-0.286-1.295-0.747
							l-17.012-29.334c-0.255-0.441-0.27-0.982-0.038-1.436c0.232-0.454,0.679-0.759,1.185-0.809l36.324-3.665
							c0.558-0.057,1.107,0.206,1.412,0.682c0.306,0.475,0.318,1.081,0.033,1.568l-19.313,32.999
							C652.75,332.183,652.257,332.465,651.725,332.465z M637.177,302.89l14.554,25.096l16.521-28.23L637.177,302.89z"/>
					</g>
					<circle style="fill:#FFFFFF;" cx="634.713" cy="301.632" r="5.778"/>
					<circle style="fill:#FFFFFF;" cx="651.725" cy="329.09" r="5.778"/>
					<g>
						<path style="fill:#5182B7;" d="M676.814,331.103c-0.7,0-1.326-0.493-1.469-1.206l-5.778-28.934
							c-0.162-0.813,0.364-1.603,1.177-1.765c0.815-0.168,1.602,0.364,1.765,1.177l5.778,28.934
							c0.162,0.813-0.364,1.603-1.177,1.765C677.01,331.094,676.911,331.103,676.814,331.103z"/>
					</g>
					<circle style="fill:#FFFFFF;" cx="676.816" cy="327.44" r="5.778"/>
					<path style="fill:#FFFFFF;" d="M676.816,297.966c0,3.191-2.587,5.778-5.778,5.778c-3.191,0-5.778-2.587-5.778-5.778
						c0-3.191,2.587-5.778,5.778-5.778C674.229,292.188,676.816,294.775,676.816,297.966z"/>
				</g>
				<g>
					<g>
						<path style="fill:#FF8698;" d="M69.329,261.734c-5.575-12.919-7.02-27.407-14.011-39.683
							c-2.592-4.552-5.845-9.005-6.388-14.215c1.5-0.838,3.25,0.528,4.375,1.826c3.905,4.505,7.2,9.539,9.765,14.921
							c-2.86-10.838-9.164-21.097-8.573-32.29c2.36,0.585,3.678,3.032,4.71,5.234c2.774,5.918,5.029,12.982,8.743,18.361
							c1.772,2.567,3.905,3.093,6.713,1.841c7.654-3.413,12.853-10.125,22.192-7.841c-0.99,9.11-3.164,17.908-3.468,27.173
							c-0.306,9.333,0.306,18.696,1.842,27.907"/>
					</g>
					<g>
						<path style="fill:#33B7DB;" d="M335.453,291.24c-2.814-7.165-6.367-14.291-12.129-19.396
							c-7.624-6.755-17.946-9.051-28.181-10.417c-8.752,6.253-20.216,8.883-30.982,7.41c-6.505-0.889-12.971-3.209-17.855-7.596
							c-1.958-1.759-3.62-3.887-4.861-6.219c-15.352,0.112-30.522,9.445-42.675,19.741c-15.52,13.148-28.541,26.241-49.368,29.111
							c-19.555,2.695-28.536-4.379-38.009-20.832c-5.698-9.895-9.694-20.622-13.049-31.543c-11.897,2.003-23.753,4.195-35.521,6.791
							c-0.17,22.884,3.888,46.835,12.834,67.055c2.961,6.691,6.612,13.217,11.891,18.284c23.848,22.89,65.569,23.826,91.546,4.596
							c-4.439,28.021-6.789,56.374-7.024,84.743c1.996,0.086,3.996,0.095,5.993,0.042l-15.663,2.21
							c35.866,1.027,71.732,2.054,107.599,3.081c14.819,0.424,29.734,0.843,44.392-1.376c10.631-1.609,21.05-4.605,30.912-8.888
							C348.914,383.654,352.027,333.441,335.453,291.24z"/>
					</g>
					<g>
						<path style="fill:#2D3870;" d="M276.386,215.483c-0.891,7.099,1.564,14.422,6.04,20.004
							c4.476,5.582,10.844,9.485,17.669,11.632c12.084,3.802,25.788,2.09,36.565-4.569c14.621-9.034,20.489-27.329,16.294-43.75
							c-3.901-15.268-17.267-26.289-32.648-28.635c-13.917-2.123-29.934,1.363-42.354,7.645"/>
					</g>
					<g>
						<path style="fill:#323B7C;" d="M322.236,199.765c2.262-3.206,5.121-6.433,5.977-10.38c0.818-3.773,1.777-7.403,2.776-11.152
							c2.459-9.23,3.546-18.848,3.186-28.413c-0.165-4.393-0.643-8.822-2.101-12.955c-2.704-7.666-10.498-15.251-18.527-16.451
							c-0.743-0.111-1.539-0.191-2.123-0.675c-0.396-0.328-0.644-0.803-0.881-1.264c-3.764-7.311-9.653-11.326-17.468-13.6
							c-6.235-1.814-12.746-2.299-19.152-3.288c-12.353-1.908-25.074-5.7-37.073-2.106c-10.005,2.997-18.197,11.008-23.017,20.572
							c-2.502,4.965-4.167,10.981-1.967,16.097c0.604,1.404,1.498,2.754,1.525,4.29c0.023,1.334-0.615,2.569-1.108,3.802
							c-3.499,8.749,1.076,20.015,9.561,23.541"/>
					</g>
					<g>
						<path style="fill:#EF7B91;" d="M224.283,166.4c0.1-3.056-1.691-6.095-4.412-7.49c-4.318-2.213-10.457,0.088-12.898,4.065
							c-2.462,4.011-2.626,8.99-2.403,13.691c0.115,2.435,0.322,4.9,1.15,7.192c1.712,4.74,5.86,8.176,10.184,10.767"/>
					</g>
					<g>
						<path style="fill:#D86178;" d="M216.726,186.227c0.119,0.057,0.895-1.206,1.402-3.523c0.514-2.29,0.617-5.695-0.597-9.149
							c-1.215-3.454-3.427-6.045-5.261-7.509c-1.846-1.489-3.241-1.988-3.299-1.87c-0.094,0.16,1.134,0.906,2.755,2.48
							c1.619,1.555,3.58,4.058,4.715,7.282c1.133,3.224,1.171,6.404,0.882,8.63C217.043,184.811,216.553,186.161,216.726,186.227z"
							/>
					</g>
					<g>
						<path style="fill:#D86178;" d="M211.968,182.6c0.161-0.074-0.103-0.887-0.345-2.2c-0.247-1.311-0.405-3.149-0.141-5.149
							c0.275-1.999,0.915-3.729,1.501-4.928c0.582-1.202,1.051-1.915,0.916-2.029c-0.104-0.094-0.813,0.445-1.623,1.62
							c-0.81,1.165-1.641,3.01-1.938,5.182c-0.289,2.173,0.023,4.173,0.495,5.511C211.302,181.955,211.843,182.663,211.968,182.6z"
							/>
					</g>
					<g>
						<g>
							<path style="fill:#FF8698;" d="M241.525,255.156c1.232,2.279,2.862,4.36,4.782,6.085c4.884,4.388,11.35,6.707,17.855,7.596
								c10.344,1.414,22.334-0.817,30.735-7.287c-5.909,0.83-6.342-3.438-7.581-8.147c-1.239-4.706-2.448-9.421-3.587-14.153
								c-0.368-1.528-5.211-19.841-3.143-20.225c-12.349,2.271-25.349,3.271-36.349,8.271c4,9,5,19,8,29
								C248.516,255.367,245.013,255.09,241.525,255.156z"/>
						</g>
					</g>
					<g style="opacity:0.17;">
						<path style="fill:#FF8698;" d="M284.128,240.865c-0.132-0.538-0.27-1.075-0.4-1.614c-0.368-1.528-5.211-19.841-3.143-20.225
							c-12.349,2.271-25.349,3.271-36.349,8.271c2.834,6.377,4.164,13.256,5.764,20.281c6.8,0.79,13.683,0.59,20.331-0.987
							C275.181,245.441,279.891,243.506,284.128,240.865z"/>
					</g>
					<g>
						<path style="fill:#FF8698;" d="M327.767,187.817c-4.243-3.659-10.273-5.136-15.727-3.852
							c1.511-15.972,4.686-40.848-9.584-52.153c-16.294-12.909-39.561-15.196-58.925-8.699
							c-14.816,4.971-24.015,22.328-24.662,37.233c-0.63,14.513-4.665,28.532-1.404,42.75c1.857,8.094,5.682,15.938,11.938,21.399
							c11.811,10.31,29.335,13.362,44.405,10.112c5.722-1.234,11.213-3.562,16.017-6.913c4.712-3.286,6.962-5.826,10.04-10.82
							c-0.305,0.495,7.134,2.403,7.8,2.474c2.902,0.307,5.877,0.011,8.654-0.889c5.261-1.705,10.446-4.335,13.773-8.931
							C334.352,203.646,333.115,192.429,327.767,187.817z"/>
					</g>
					<g>
						<path style="fill:#D86178;" d="M325.69,192.687c0.035-0.103-1.877-0.697-4.991-0.21c-3.07,0.45-7.291,2.273-10.452,5.949
							c-3.146,3.678-4.412,8.009-4.756,11.06c-0.359,3.092,0.012,4.999,0.135,4.984c0.193-0.005,0.12-1.904,0.672-4.858
							c0.537-2.926,1.871-6.981,4.825-10.433c2.959-3.44,6.849-5.27,9.733-5.901C323.77,192.611,325.675,192.895,325.69,192.687z"/>
					</g>
					<g>
						<path style="fill:#D86178;" d="M309.15,210.963c0.062,0.128,1.062-0.152,2.457-1.075c1.363-0.905,3.201-2.595,3.99-5.165
							c0.771-2.615-0.084-5.134-1.203-6.436c-1.141-1.354-2.296-1.54-2.316-1.422c-0.091,0.172,0.843,0.619,1.657,1.904
							c0.813,1.241,1.404,3.432,0.756,5.622c-0.673,2.211-2.207,3.829-3.38,4.849C309.922,210.272,309.068,210.808,309.15,210.963z"
							/>
					</g>
					<polygon style="opacity:0.41;fill:#FF8698;" points="256.618,150.87 242.923,186.035 259.641,188.203 					"/>
					<g>
						<path style="fill:#D86178;" d="M237.562,175.822c0.477,0.034,1.023-2.156,1.22-4.893c0.196-2.736-0.031-4.982-0.508-5.017
							c-0.477-0.034-1.023,2.156-1.22,4.893C236.857,173.542,237.085,175.788,237.562,175.822z"/>
					</g>
					<g>
						<path style="fill:#D86178;" d="M274.612,179.376c0.483,0.005,0.896-2.421,1.167-5.404c0.264-2.983,0.291-5.444-0.186-5.525
							c-0.467-0.081-1.268,2.31-1.54,5.37C273.776,176.877,274.139,179.373,274.612,179.376z"/>
					</g>
					<g>
						<path style="fill:#323B7C;" d="M233.296,156.473c5.61,0.144,16.209-1.398,11.002-6.96c-3.092-3.303-10.046-0.794-13.356,0.944
							c-3.114,1.635-4.005,4.629-0.351,5.717C231.132,156.335,232.101,156.443,233.296,156.473z"/>
					</g>
					<g style="opacity:0.17;">
						<path style="fill:#FF8698;" d="M231.227,130.472c4.825,10.545,15.056,14.509,25.603,16.629
							c6.005,1.207,12.201,1.437,18.282,0.724c5.427-0.637,12.335-1.578,17.035-4.498c-2.139,1.329-2.313,9.463-2.352,11.687
							c-0.072,4.155,0.611,8.325,1.996,12.243c2.772,7.837,8.507,14.931,17.198,16.193c-1.866-9.128-2.286-18.55-1.238-27.809
							c0.44-3.889,1.138-7.795,0.777-11.693c-0.557-6.021-3.768-11.749-8.614-15.367"/>
					</g>
					<g>
						<path style="fill:#323B7C;" d="M279.442,160.431c-5.493-1.149-15.455-5.084-9.109-9.301c3.768-2.504,9.96,1.535,12.782,3.986
							c2.655,2.307,2.834,5.425-0.971,5.645C281.58,160.794,280.613,160.676,279.442,160.431z"/>
					</g>
					<g>
						<path style="fill:#323B7C;" d="M226.787,125.704c1.581,3.07,4.682,5.022,7.719,6.666c13.802,7.469,29.898,11.698,45.32,8.796
							c5.879-1.106,11.733-3.232,17.675-2.542c-3.868,8.49-3.349,18.379-1.136,27.443c1.715,7.027,4.693,14.209,10.584,18.406
							c0.878,0.625,1.916,1.198,2.978,1.016c0.74-0.127,1.371-0.605,1.906-1.132c3.318-3.271,3.772-8.388,3.96-13.044
							c0.299-7.388,0.423-14.853-1.008-22.107c-1.432-7.255-4.541-14.362-9.893-19.464c-3.423-3.263-7.628-5.593-11.936-7.544
							c-8.851-4.007-18.461-6.573-28.177-6.538c-9.716,0.035-19.547,2.78-27.351,8.568"/>
					</g>
					<g>
						<path style="fill:#FFFFFF;" d="M318.696,182.748c-0.152-0.604-8.117,0.9-17.565,4.092c-9.454,3.174-16.707,6.794-16.462,7.367
							c0.252,0.602,7.836-2.035,17.199-5.178C311.225,185.868,318.859,183.38,318.696,182.748z"/>
					</g>
					<g>
						<path style="fill:#FFFFFF;" d="M293.717,226.882c0.354-0.322-1.43-2.857-3.985-5.662c-2.554-2.805-4.912-4.818-5.266-4.496
							s1.43,2.857,3.985,5.662C291.006,225.191,293.363,227.204,293.717,226.882z"/>
					</g>
					<g>
						<path style="fill:#31ADC9;" d="M295.143,261.427c-8.752,6.253-20.216,8.883-30.982,7.41
							c-6.505-0.889-12.971-3.209-17.855-7.596c-1.958-1.759-3.62-3.887-4.861-6.219c-4.76,0.035-9.503,0.959-14.144,2.521
							c7.557,12.141,20.961,20.729,35.275,22.554c16.659,2.124,33.832-4.383,46.006-15.988
							C304.247,262.826,299.687,262.034,295.143,261.427z"/>
					</g>
					<g>
						<path style="fill:#FFFFFF;" d="M323.324,271.844c-8.951-7.931-21.622-9.72-33.504-11.068
							c-0.198-0.464-0.386-0.932-0.578-1.398c-3.105,50.956-8.961,101.745-17.554,152.067c-1.529,8.952-3.156,17.9-5.167,26.754
							c1.159,0.033,2.319,0.066,3.478,0.1c17.404,0.498,33.661-0.933,50.836-2.721c3.129-0.326,42.693,4.629,41.788-1.586
							c-4.318-29.652-9.33-59.203-15.029-88.62C343.183,322.601,341.99,288.382,323.324,271.844z"/>
					</g>
					<g>
						<path style="fill:#C3E7FD;" d="M289.467,259.923c-3.24,50.583-9.122,100.996-17.654,150.959
							c-1.141,6.679-2.353,13.353-3.719,19.991c-0.135,0.659-0.277,1.316-0.415,1.975c-0.196,0.931-0.384,1.864-0.587,2.793
							c22.385-18.831,41.978-47.103,30.772-76.753c-0.811-2.147-1.778-4.431-1.224-6.659c0.345-1.389,1.244-2.562,2.092-3.715
							c11.203-15.241,14.301-28.402,10.698-46.441c-2.941-14.727-9.035-28.823-17.719-41.078c-0.632-0.075-1.263-0.148-1.892-0.219
							C289.698,260.493,289.583,260.208,289.467,259.923z"/>
					</g>
					<path style="opacity:0.5;fill:#FFFFFF;" d="M102.864,176.376v-34.809H85.095v34.809c-13.406,3.857-23.224,16.189-23.224,30.836
						c0,17.733,14.375,32.109,32.109,32.109s32.109-14.375,32.109-32.109C126.088,192.565,116.271,180.233,102.864,176.376z"/>
					<path style="fill:#1F68EB;" d="M88.023,206.626c-6.616,1.146-15.084,1.023-22.082-1.418c-0.047,0.665-0.101,1.328-0.101,2.005
						c0,15.541,12.598,28.139,28.139,28.139s28.139-12.598,28.139-28.139c0-2.893-0.439-5.683-1.25-8.309
						C109.861,200.193,98.109,204.879,88.023,206.626z"/>
					<path style="fill:#FFFFFF;" d="M103.701,145.62H84.258c-1.791,0-3.243-1.452-3.243-3.243l0,0c0-1.791,1.452-3.243,3.243-3.243
						h19.443c1.791,0,3.243,1.452,3.243,3.243l0,0C106.944,144.168,105.492,145.62,103.701,145.62z"/>
					<g>
						<path style="fill:#FF8698;" d="M75.813,236.893c-2.46,3.457-1.916,7.655,0.141,11.189c1.417,2.434,3.555,4.538,5.919,5.88
							c3.427-0.573,6.859-1.121,10.29-1.67c1.299-0.332,2.596-0.676,3.896-1.003c0.068-0.017,0.136-0.033,0.204-0.051
							c0.083-1.209,0.053-2.452,0.084-3.658c0.069-2.702,0.105-5.407-0.321-8.085c-0.659-4.147-2.168-8.218-4.046-11.963
							c-1.96-3.908-4.319-7.616-7.026-11.049c-0.63-0.799-8.274-9.07-8.449-8.833c-1.635,2.228-0.451,5.348,0.802,7.811
							c2.821,5.542,5.802,11.002,8.94,16.371C82.24,231.924,78.137,233.627,75.813,236.893z"/>
					</g>
					<g>
						<path style="fill:#E4EFF2;" d="M283.203,224.584c-1.108,1.195-2.243,2.304-3.374,3.309
							c-12.977,11.535-35.688,12.763-49.762,2.379c-14.16-10.447-17.371-28.761-14.9-45.236c0.829-5.531,18.266-6.594,22.104-6.751
							c8.74-0.359,17.576,0.357,26.102,2.34c8.385,1.95,27.138,5.6,29.919,15.603C296.061,206.188,290.154,217.087,283.203,224.584z
							"/>
					</g>
					<g>
						<path style="fill:#FFFFFF;" d="M198.77,274.762c-15.52,13.148-28.541,26.241-49.368,29.111
							c-19.555,2.695-28.536-4.379-38.009-20.832c-5.698-9.895-9.694-20.622-13.049-31.543c-11.897,2.003-23.753,4.195-35.521,6.791
							c-0.17,22.884,3.888,46.835,12.834,67.055c2.961,6.691,6.612,13.217,11.891,18.284c23.848,22.89,65.569,23.826,91.546,4.596
							c-4.439,28.021-6.789,56.374-7.024,84.743c1.996,0.086,3.996,0.095,5.993,0.042l-15.663,2.21
							c23.685,0.678,47.37,1.357,71.056,2.035c0.298-60.828,4.919-121.633,13.814-181.808
							C229.976,252.796,212.459,263.165,198.77,274.762z"/>
					</g>
					<g>
						<g>
							<path style="fill:#FFFFFF;" d="M278.167,198.445c0.034-0.072-0.607-0.44-1.798-1.045c-0.593-0.308-1.328-0.666-2.201-1.038
								c-0.871-0.377-1.854-0.83-2.976-1.243c-2.221-0.887-4.924-1.795-7.969-2.656c-3.053-0.829-6.454-1.592-10.065-2.153
								c-3.615-0.538-7.089-0.819-10.25-0.935c-3.164-0.083-6.014-0.019-8.398,0.168c-1.194,0.061-2.267,0.202-3.211,0.303
								c-0.944,0.096-1.752,0.219-2.41,0.337c-1.317,0.224-2.038,0.385-2.028,0.464c0.025,0.189,2.952-0.144,7.689-0.289
								c2.368-0.082,5.189-0.061,8.314,0.08c3.124,0.172,6.55,0.483,10.12,1.013c3.567,0.554,6.931,1.276,9.965,2.039
								c3.026,0.795,5.726,1.613,7.963,2.394C275.391,197.431,278.087,198.618,278.167,198.445z"/>
						</g>
						<g>
							<path style="fill:#FFFFFF;" d="M270.519,207.418c0.055-0.126-2.015-1.21-5.563-2.498c-3.541-1.29-8.595-2.692-14.312-3.47
								c-5.719-0.766-10.963-0.753-14.719-0.448c-3.762,0.301-6.045,0.798-6.026,0.934c0.023,0.18,2.335-0.028,6.066-0.118
								c3.73-0.094,8.889,0.023,14.524,0.777c5.634,0.767,10.639,2.021,14.211,3.101
								C268.275,206.771,270.449,207.585,270.519,207.418z"/>
						</g>
						<g>
							<path style="fill:#FFFFFF;" d="M261.884,216.707c0.086-0.28-5.587-2.067-12.864-2.623c-7.274-0.588-13.156,0.289-13.115,0.58
								c0.028,0.344,5.869-0.009,13.025,0.572C256.089,215.781,261.803,217.042,261.884,216.707z"/>
						</g>
						<g>
							<path style="fill:#FFFFFF;" d="M254.572,223.937c0.037-0.317-2.544-0.878-5.765-1.254c-3.221-0.375-5.862-0.423-5.899-0.106
								c-0.037,0.317,2.544,0.878,5.765,1.253C251.894,224.206,254.535,224.253,254.572,223.937z"/>
						</g>
					</g>
					<g style="opacity:0.17;">
						<path style="fill:#FF8698;" d="M323.187,209.561c-1.904,2.072-4.887,4.226-7.462,5.371c-0.877,0.39-10.162,1.342-9.932-0.154
							c0.865-5.629,0.543-9.652,4.028-14.562c2.772-3.906,6.992-6.855,11.708-7.693c1.81-0.322,3.954-0.214,5.107,1.219
							c0.634,0.788,0.839,1.834,0.932,2.841C328.001,201.263,326.369,206.099,323.187,209.561z"/>
					</g>
					<g>
						<path style="fill:#E4EFF2;" d="M175.356,367.594c0.254,0.043,1.172-4.339,2.763-11.386c1.589-7.048,3.927-16.746,6.971-27.332
							c3.054-10.583,6.234-20.039,8.638-26.852c2.401-6.814,3.955-11.012,3.718-11.111c-0.111-0.046-0.636,0.948-1.493,2.786
							c-0.864,1.835-2.02,4.531-3.371,7.895c-2.706,6.724-6.087,16.167-9.156,26.803c-3.059,10.639-5.221,20.433-6.507,27.567
							c-0.646,3.567-1.101,6.465-1.346,8.478C175.321,366.453,175.238,367.574,175.356,367.594z"/>
					</g>
					<path style="fill:#E4EFF2;" d="M184.226,329.764c-3.715,1.564-8.134,3.325-13.277,5.014c-4.182,1.363-8.84,2.65-13.923,3.503
						c-5.077,0.873-10.604,1.262-16.364,0.87c-5.75-0.403-11.75-1.712-17.424-4.335c-5.683-2.608-10.917-6.609-15.456-11.47
						c-2.251-2.453-4.292-5.046-6.16-7.708c-1.853-2.674-3.507-5.428-5.044-8.185c-1.519-2.769-2.88-5.561-4.153-8.326
						c-1.236-2.78-2.403-5.53-3.453-8.245c-4.25-10.85-7.022-21.009-8.865-29.629c-0.458-2.19-0.858-4.279-1.21-6.26
						c-0.361,0.069-0.72,0.143-1.081,0.212c0.31,1.991,0.67,4.09,1.09,6.291c1.701,8.708,4.372,18.984,8.577,29.961
						c1.039,2.748,2.196,5.527,3.433,8.349c1.273,2.805,2.64,5.642,4.173,8.461c1.551,2.808,3.228,5.618,5.116,8.352
						c1.903,2.723,3.992,5.383,6.307,7.905c4.666,5,10.1,9.145,16.016,11.833c5.907,2.705,12.118,4.015,18.025,4.386
						c5.919,0.359,11.56-0.097,16.72-1.047c5.17-0.932,9.866-2.306,14.066-3.757c4.828-1.681,8.986-3.425,12.516-5.016
						C183.977,330.537,184.098,330.149,184.226,329.764z"/>
					<g>
						<path style="fill:#E4EFF2;" d="M89.441,261.022c-9.826,2.055-18.941,4.017-26.488,5.691c0.018,0.483,0.047,0.966,0.069,1.449
							c7.63-1.498,16.849-3.369,26.774-5.445c3.947-0.825,7.776-1.635,11.438-2.418c-0.187-0.533-0.371-1.068-0.554-1.603
							C97.075,259.435,93.314,260.212,89.441,261.022z"/>
					</g>
					<g>
						<path style="fill:#C3E7FD;" d="M247.269,255.445c-1.89-0.289-3.782-0.415-5.671-0.409
							c-18.51,19.506-41.816,46.395-22.48,72.336c0.47,0.63,0.974,1.28,1.109,2.054c0.222,1.273-0.601,2.466-1.342,3.525
							c-10.515,15.019-11.132,36.333-9.386,54.019c1.861,18.846,10.513,36.928,23.945,50.268c0.004,0,0.008,0,0.012,0
							C233.754,376.414,238.375,315.615,247.269,255.445z"/>
					</g>
					<g>
						<path style="fill:#E4EFF2;" d="M316.443,434.277c0.119-0.012,0.11-1.28-0.009-3.562c-0.12-2.282-0.341-5.58-0.641-9.652
							c-0.708-9.054-1.552-19.861-2.486-31.803c-0.959-11.939-1.827-22.745-2.553-31.797c-0.344-4.068-0.645-7.359-0.886-9.632
							c-0.243-2.273-0.433-3.526-0.553-3.519c-0.119,0.007-0.156,1.274-0.121,3.56c0.034,2.286,0.149,5.59,0.337,9.671
							c0.375,8.161,1.065,19.427,2.049,31.854c0.986,12.427,2.078,23.661,2.993,31.779c0.457,4.059,0.864,7.341,1.19,9.604
							C316.087,433.043,316.323,434.289,316.443,434.277z"/>
					</g>
					<g>
						<g>
							<path style="fill:#3E4C96;" d="M310.391,123.988c-0.048-0.139-0.922-0.013-2.238,0.513c-1.314,0.521-3.047,1.493-4.684,2.923
								c-1.633,1.435-2.824,3.026-3.514,4.259c-0.694,1.236-0.934,2.086-0.802,2.151c0.307,0.163,1.956-2.843,5.077-5.542
								C307.315,125.553,310.512,124.313,310.391,123.988z"/>
						</g>
						<g>
							<path style="fill:#3E4C96;" d="M306.898,171.453c0.17-0.076-0.602-1.983-1.541-5.144c-0.478-1.578-0.952-3.483-1.384-5.614
								c-0.405-2.137-0.753-4.503-0.948-7.004c-0.175-2.502-0.179-4.894-0.093-7.067c0.114-2.171,0.302-4.125,0.543-5.756
								c0.464-3.265,0.947-5.265,0.768-5.315c-0.127-0.039-0.893,1.893-1.573,5.177c-0.347,1.639-0.625,3.619-0.8,5.831
								c-0.147,2.213-0.176,4.658,0.003,7.215c0.199,2.555,0.587,4.97,1.059,7.137c0.498,2.162,1.064,4.08,1.649,5.65
								C305.736,169.711,306.778,171.51,306.898,171.453z"/>
						</g>
						<g>
							<path style="fill:#3E4C96;" d="M317.423,179.698c0.072,0.022,0.361-0.648,0.773-1.902c0.398-1.257,0.891-3.109,1.273-5.444
								c0.38-2.334,0.633-5.154,0.57-8.29c-0.084-3.133-0.479-6.58-1.363-10.095c-0.872-3.525-2.167-6.721-3.329-9.592
								c-1.177-2.87-2.215-5.445-2.952-7.653c-1.512-4.41-1.69-7.323-1.896-7.303c-0.067,0.004-0.11,0.738,0.015,2.055
								c0.116,1.318,0.44,3.218,1.101,5.489c0.648,2.275,1.621,4.915,2.743,7.803c1.109,2.893,2.351,6.051,3.199,9.481
								c0.862,3.43,1.279,6.788,1.419,9.85c0.119,3.065-0.044,5.833-0.315,8.142C318.104,176.861,317.232,179.643,317.423,179.698z"
								/>
						</g>
						<g>
							<path style="fill:#3E4C96;" d="M326.638,177.216c0.077,0.019,0.309-0.675,0.663-1.953c0.184-0.637,0.387-1.423,0.56-2.348
								c0.181-0.924,0.424-1.972,0.569-3.149c0.177-1.174,0.357-2.462,0.456-3.855c0.152-1.39,0.185-2.882,0.242-4.453
								c0.033-3.141-0.128-6.601-0.609-10.199c-0.511-3.594-1.293-6.968-2.175-9.983c-0.48-1.496-0.916-2.924-1.438-4.221
								c-0.472-1.315-0.995-2.506-1.483-3.588c-0.459-1.094-0.976-2.037-1.4-2.878c-0.418-0.844-0.825-1.545-1.175-2.109
								c-0.686-1.134-1.097-1.74-1.167-1.7c-0.175,0.097,1.235,2.658,2.991,7.007c0.434,1.089,0.906,2.282,1.333,3.593
								c0.477,1.292,0.872,2.711,1.317,4.192c0.813,2.985,1.55,6.31,2.053,9.845c0.473,3.539,0.663,6.939,0.689,10.033
								c-0.028,1.547-0.023,3.019-0.133,4.392c-0.056,1.377-0.188,2.653-0.311,3.82C327.107,174.323,326.443,177.17,326.638,177.216
								z"/>
						</g>
						<g>
							<path style="fill:#3E4C96;" d="M220.225,115.997c0.092,0.074,0.827-0.992,2.593-2.428c1.749-1.438,4.701-3.064,8.684-3.902
								c1.986-0.42,4.212-0.647,6.601-0.65c2.388,0.012,4.951,0.266,7.634,0.643c5.358,0.719,11.297,2.063,17.7,1.84
								c6.36-0.234,12.255-1.445,17.651-1.582c5.379-0.212,10.272,0.651,13.84,2.561c3.598,1.879,5.794,4.493,6.884,6.46
								c1.121,1.983,1.297,3.282,1.418,3.248c0.039-0.008,0.001-0.325-0.111-0.93c-0.146-0.593-0.381-1.479-0.909-2.527
								c-1.002-2.099-3.191-4.914-6.893-6.969c-3.683-2.095-8.763-3.066-14.256-2.907c-5.516,0.086-11.441,1.268-17.66,1.491
								c-6.216,0.222-12.097-1.068-17.522-1.741c-2.715-0.352-5.321-0.576-7.781-0.546c-2.456,0.045-4.74,0.326-6.775,0.811
								c-4.084,0.965-7.088,2.769-8.795,4.355c-0.435,0.392-0.807,0.751-1.095,1.098c-0.302,0.332-0.549,0.619-0.717,0.878
								C220.361,115.702,220.193,115.974,220.225,115.997z"/>
						</g>
						<g>
							<path style="fill:#3E4C96;" d="M240.636,113.834c-0.051-0.144-1.622,0.223-4.092,1.069c-2.458,0.854-5.852,2.207-9.222,4.433
								c-3.373,2.225-5.895,4.994-7.259,7.262c-1.391,2.267-1.75,3.894-1.626,3.932c0.174,0.072,0.797-1.417,2.303-3.476
								c1.484-2.066,3.972-4.61,7.221-6.756c3.251-2.149,6.518-3.594,8.88-4.634C239.212,114.632,240.691,113.991,240.636,113.834z"
								/>
						</g>
						<g>
							<path style="fill:#3E4C96;" d="M298.415,131.177c-0.085-0.231-3.765,1.754-10.262,2.751
								c-3.236,0.467-7.165,0.63-11.439,0.003c-2.134-0.309-4.348-0.815-6.57-1.562c-2.221-0.757-4.461-1.728-6.712-2.838
								c-4.5-2.216-8.712-4.611-12.837-6.22c-4.12-1.644-8.131-2.355-11.496-2.323c-3.378,0.027-6.05,0.864-7.728,1.686
								c-0.834,0.432-1.461,0.802-1.846,1.112c-0.395,0.294-0.589,0.463-0.566,0.495c0.062,0.094,0.908-0.498,2.594-1.197
								c1.688-0.674,4.281-1.356,7.541-1.28c3.248,0.072,7.115,0.84,11.103,2.494c4.015,1.627,8.173,4.026,12.727,6.271
								c2.276,1.122,4.571,2.109,6.861,2.874c2.296,0.756,4.583,1.254,6.781,1.542c4.402,0.586,8.429,0.331,11.716-0.251
								c3.293-0.599,5.857-1.497,7.567-2.227c0.861-0.355,1.504-0.686,1.934-0.922C298.215,131.353,298.432,131.213,298.415,131.177
								z"/>
						</g>
						<g>
							<path style="fill:#3E4C96;" d="M296.382,124.831c-0.069-0.224-2.475,0.93-6.601,0.895c-2.051,0.004-4.486-0.353-7.124-1.029
								c-2.639-0.686-5.472-1.715-8.405-2.921c-2.941-1.215-5.763-2.381-8.414-3.248c-2.649-0.866-5.118-1.444-7.231-1.653
								c-2.111-0.218-3.84-0.146-5.008,0.044c-1.17,0.181-1.793,0.387-1.78,0.453c0.026,0.218,2.6-0.339,6.681,0.312
								c2.036,0.305,4.414,0.947,6.996,1.851c2.584,0.906,5.366,2.09,8.317,3.309c2.962,1.218,5.862,2.238,8.587,2.885
								c2.725,0.637,5.264,0.922,7.394,0.812c2.128-0.099,3.827-0.485,4.936-0.905C295.844,125.228,296.409,124.891,296.382,124.831
								z"/>
						</g>
					</g>
					<g>
						<g>
							<path style="fill:#FFFFFF;" d="M226.788,188.9c-11.368,0-20.617-9.249-20.617-20.617c0-11.368,9.249-20.616,20.617-20.616
								c11.368,0,20.616,9.249,20.616,20.616C247.404,179.652,238.155,188.9,226.788,188.9z M226.788,148.957
								c-10.657,0-19.327,8.669-19.327,19.326c0,10.657,8.67,19.327,19.327,19.327c10.657,0,19.326-8.67,19.326-19.327
								C246.114,157.627,237.444,148.957,226.788,148.957z"/>
						</g>
						<g>
							<path style="fill:#FFFFFF;" d="M281.705,195.81c-11.368,0-20.617-9.249-20.617-20.617c0-11.368,9.249-20.616,20.617-20.616
								c11.368,0,20.616,9.249,20.616,20.616C302.321,186.562,293.073,195.81,281.705,195.81z M281.705,155.867
								c-10.657,0-19.327,8.669-19.327,19.326c0,10.657,8.67,19.327,19.327,19.327c10.657,0,19.327-8.67,19.327-19.327
								C301.032,164.537,292.361,155.867,281.705,155.867z"/>
						</g>
						<g>
							<g>
								<path style="fill:#FFFFFF;" d="M301.251,178.507c7.638-0.064,15.258,0.783,22.656,2.708
									c6.889,1.793,14.413,6.13,14.707,14.09c0.024,0.643,1.024,0.645,1,0c-0.264-7.144-6.018-11.71-12.235-14.055
									c-8.119-3.063-17.526-3.815-26.129-3.743C300.607,177.513,300.606,178.513,301.251,178.507L301.251,178.507z"/>
							</g>
						</g>
						<g>
							<g>
								<path style="fill:#FFFFFF;" d="M247.026,172.137c3.872-4.413,10.628-4.148,14.14,0.576c0.38,0.511,1.249,0.013,0.863-0.505
									c-3.87-5.205-11.378-5.716-15.711-0.778C245.895,171.913,246.6,172.623,247.026,172.137L247.026,172.137z"/>
							</g>
						</g>
					</g>
				</g>
				<path style="fill:#9ED5E7;" d="M642.372,433.536H523.478v-9.788c0-13.92,11.285-25.205,25.205-25.205h68.484
					c13.92,0,25.205,11.285,25.205,25.205V433.536z"/>
				<path style="fill:#86C3D1;" d="M523.798,419.746h118.255c-0.336-2.105-0.933-4.122-1.756-6.019H525.554
					C524.731,415.624,524.134,417.641,523.798,419.746z"/>
				<g>
					<g>
						<path style="fill:#2C2F5C;" d="M433.205,188.465c-7.091,12.644-3.463,30.253,8.05,39.063c2.347,1.796,5.366,3.299,8.174,2.376
							c1.531-0.503,2.751-1.661,3.839-2.85c7.976-8.715,11.653-21.189,9.679-32.836"/>
					</g>
					<g>
						<path style="fill:#FF8698;" d="M522.928,351.09c4.003,0.016,7.562-2.539,10.349-5.412c2.787-2.873,5.162-6.206,8.432-8.513
							c6.258-4.415,15.46-4.065,21.365,0.812c0.504,0.416,1.02,0.878,1.663,0.996c0.643,0.118,1.432-0.293,1.435-0.947
							c0.001-0.325-0.185-0.618-0.372-0.884c-3.834-5.453-11.003-8.339-17.547-7.063c3.38-2.184,7.658-2.447,11.662-2.044
							c4.003,0.404,7.948,1.404,11.971,1.494c1.325,0.03,3.11-0.527,2.964-1.844c-0.09-0.813-0.923-1.303-1.669-1.639
							c-8.271-3.718-17.899-4.318-26.567-1.657c6.891-3.776,15.124-5.043,22.832-3.512c3.487,0.693,6.901,1.939,10.456,1.986
							c0.08-2.001-1.955-3.371-3.785-4.184c-9.393-4.172-20.361-4.672-30.096-1.372c6.29-2.916,13.184-4.52,20.116-4.681
							c3.253-0.075,7.067-0.09,8.997-2.71c-5.749-2.228-12.163-2.259-18.225-1.132c-6.062,1.128-11.854,3.36-17.605,5.581
							c6.073-3.819,12.597-8.208,14.671-15.076c-0.72-1.446-2.914-0.581-4.163,0.444c-12.877,10.566-25.793,21.169-37.234,33.275"/>
					</g>
					<g>
						<path style="fill:#2C2F5C;" d="M431.288,188.979c-5.118-22.884-1.131-50.811,19.053-65.429
							c5.687-4.119,13.194-6.225,19.984-4.307c1.644,0.464,3.246,1.156,4.953,1.272c1.791,0.121,3.552-0.401,5.303-0.794
							c16.613-3.735,35.367,2.554,49.647,10.864c19.619,11.417,28.373,38.255,19.361,58.776c-3.628,8.26-9.099,15.552-14.521,22.762
							"/>
					</g>
					<g>
						<path style="fill:#EF7089;" d="M535.943,193.006c-1.308,15.458-2.617,30.915-3.925,46.372
							c-7.716-1.532-15.26-3.922-22.451-7.113"/>
					</g>
					<g>
						<path style="fill:#FFFFFF;" d="M376.617,436.297h43.007l20.013-1.938c2.856,0.82,5.761,1.459,8.693,1.938h24.905
							c2.587-0.425,5.153-0.983,7.682-1.674c-3.426-19.568-4.884-39.479-4.343-59.337c7.022,19.692,7.704,41.34,14.996,61.012
							h34.409c1.642-0.491,3.273-1.023,4.886-1.602c-6.348-10.745-11.178-42.565-14.303-54.648
							c-2.665-10.304-4.087-20.882-6.049-31.343c-3.868-20.615-9.858-40.83-17.843-60.225c-2.634-6.398-5.578-12.848-10.382-17.827
							c-5.711-5.92-13.176-8.729-20.498-12.11c4.272-16.062,9.822-31.783,16.582-46.966c-8.949-1.441-17.898-2.881-26.848-4.322
							c-1.09-0.175-2.25-0.343-3.263,0.095c-1.021,0.441-1.696,1.412-2.315,2.336l-19.858,29.602
							c-1.052,1.569-2.135,3.17-3.656,4.292c-1.837,1.355-4.138,1.883-6.369,2.38c-16.605,3.697-29.064,19.635-36.023,34.203
							c-8.496,17.786-12.113,37.485-14.518,56.907c-4.012,32.403-4.994,65.294-0.978,97.696
							C368.553,435.383,372.581,435.886,376.617,436.297z"/>
					</g>
					<g>
						<path style="fill:#33B7DB;" d="M450.8,366.142c4.859-16.382,5.257-33.706,5.62-50.789c0.443-20.887,0.884-41.841-1.327-62.615
							c-0.132-1.244-0.624-2.83-1.874-2.858l-20.061-2.324C438.289,287.192,444.171,326.729,450.8,366.142z"/>
					</g>
					<g>
						<path style="fill:#F47D94;" d="M432.068,253.141c4.565,3.357,9.936,5.71,15.569,6.322c4.872,0.53,9.795-0.258,14.426-1.913
							c4.235-15.717,9.688-31.105,16.308-45.975c-8.949-1.441-17.898-2.881-26.847-4.322c-1.09-0.176-2.25-0.343-3.263,0.095
							c-1.021,0.441-1.696,1.412-2.315,2.336c-6.619,9.867-13.239,19.735-19.858,29.603c-0.973,1.45-1.988,2.912-3.335,4.013
							C425.258,247.088,428.408,250.45,432.068,253.141z"/>
					</g>
					<g>
						<path style="fill:#FF8698;" d="M500.993,253.138c-11.621,3.289-26.251,2.076-36.233-4.577
							c-12.404-8.268-21.306-23.145-19.359-38.185c-5.547,0.494-11.272-1.658-15.119-5.684
							c-10.474-10.962-3.012-39.18,15.275-30.916c1.744-9.178,3.597-18.63,7.969-26.981c4.376-8.359,9.481-11.201,18.456-13.453
							c12.387-3.108,25.81-1.912,37.452,3.337c17.408,7.849,29.021,25.514,28.605,44.703c-0.333,15.347-5.392,30.143-12.772,43.48
							c-5.304,9.586-11.235,23.949-22.38,27.692C502.266,252.761,501.634,252.956,500.993,253.138z"/>
					</g>
					<g>
						<path style="fill:#D86178;" d="M443.918,204.057c0.133,0.048,0.889-1.48,1.434-4.171c0.54-2.66,0.777-6.609-0.611-10.659
							c-1.399-4.057-4.212-6.993-6.585-8.403c-2.392-1.454-4.168-1.587-4.179-1.466c-0.064,0.2,1.579,0.63,3.703,2.175
							c2.118,1.506,4.617,4.318,5.919,8.088c1.297,3.781,1.22,7.517,0.908,10.132C444.195,202.39,443.736,204,443.918,204.057z"/>
					</g>
					<g>
						<path style="fill:#D86178;" d="M440.368,197.617c0.153-0.114-0.245-0.799-0.588-1.959c-0.181-0.577-0.306-1.285-0.374-2.071
							c-0.042-0.79-0.012-1.66,0.148-2.558c0.177-0.895,0.464-1.717,0.79-2.437c0.349-0.708,0.722-1.323,1.1-1.794
							c0.74-0.956,1.36-1.45,1.259-1.612c-0.066-0.123-0.884,0.122-1.887,1.034c-0.505,0.448-1.008,1.086-1.459,1.86
							c-0.428,0.784-0.79,1.711-0.99,2.727c-0.183,1.019-0.182,2.014-0.067,2.9c0.14,0.885,0.377,1.662,0.685,2.263
							C439.589,197.182,440.262,197.708,440.368,197.617z"/>
					</g>
					<g>
						<path style="fill:#2C2F5C;" d="M443.478,176.336c6.66,5.986,17.48,5.04,24.965,0.123c7.485-4.917,12.335-12.887,16.611-20.755
							c0.809-1.489,1.654-3.038,3.035-4.02c1.134-0.806,2.534-1.154,3.917-1.3c9.689-1.023,17.844,6.799,24.166,14.212
							c6.322,7.413,13.597,15.701,23.332,16.098c1.32-5.362-0.267-10.963-1.843-16.255c-1.872-6.286-3.817-12.72-7.765-17.957
							c-2.8-3.714-6.502-6.667-10.448-9.13c-19.37-12.088-45.647-12.044-64.977,0.108c-3.116,1.959-6.118,4.267-8.106,7.365
							c-2.028,3.161-2.865,6.921-3.6,10.604c-1.058,5.297-1.984,10.621-2.775,15.965"/>
					</g>
					<g>
						<path style="fill:#2C2F5C;" d="M523.21,199.98c6.635-4.109,2.185-7.69-3.257-7.713c-3.224-0.013-9.77,0.009-10.952,3.968
							c-0.725,2.426,1.865,4.602,4.315,5.24C516.635,202.337,520.296,201.784,523.21,199.98z"/>
					</g>
					<g>
						<path style="fill:#D86178;" d="M514.216,221.482c0.307,0.129,1.381-1.723,2.398-4.137c1.017-2.414,1.592-4.476,1.285-4.606
							c-0.307-0.129-1.381,1.723-2.398,4.137C514.484,219.29,513.909,221.352,514.216,221.482z"/>
					</g>
					<g>
						<path style="fill:#D86178;" d="M508.447,243.382c0.205-0.288-2.081-1.93-3.224-5.019c-1.218-3.06-0.618-5.81-0.963-5.887
							c-0.143-0.043-0.515,0.601-0.702,1.77c-0.192,1.16-0.112,2.848,0.538,4.549c0.655,1.699,1.726,3.007,2.645,3.741
							C507.663,243.28,508.369,243.51,508.447,243.382z"/>
					</g>
					<g>
						<path style="fill:#E4EFF2;" d="M393.824,436.297c-0.228-12.419-0.25-28.933,0.18-47.051c0.252-9.648,0.596-18.837,0.999-27.19
							c0.438-8.351,0.878-15.87,1.365-22.176c0.221-3.155,0.445-6.007,0.668-8.51c0.2-2.352,0.381-4.489,0.545-6.424
							c0.317-3.525,0.436-5.483,0.317-5.498c-0.119-0.015-0.464,1.914-0.987,5.421c-0.276,1.752-0.54,3.904-0.839,6.403
							c-0.316,2.498-0.625,5.348-0.925,8.503c-0.645,6.306-1.213,13.831-1.739,22.194c-0.491,8.364-0.885,17.569-1.137,27.235
							c-0.43,18.132-0.238,34.664,0.27,47.093H393.824z"/>
					</g>
					<g>
						<path style="fill:#E4EFF2;" d="M474.046,344.493c0.319-0.014,0.232-7.749-0.194-17.275c-0.426-9.526-1.03-17.237-1.348-17.223
							c-0.319,0.014-0.232,7.749,0.194,17.275C473.124,336.796,473.727,344.507,474.046,344.493z"/>
					</g>
					<g>
						<path style="fill:#FFFFFF;" d="M533.716,339.669c-1.849-7.122-3.176-11.426-7.003-17.302
							c-1.474-2.264-2.098-3.252-3.875-4.918c-3.689,1.04-7.413,2.437-10.559,3.224c-6.958,1.74-13.933,3.435-21.023,4.557
							c-12.046,1.905-37.366,10.411-46.418-1.685c-9.467-12.652-7.299-35.315-10.203-50.178
							c-1.483-7.589-4.824-16.984-13.337-18.883c-8.675-1.936-17.811,2.079-23.521,8.598c-8.833,10.085-9.389,26.132-9.225,38.751
							c0.296,22.793,4.678,57.457,27.079,69.864c6.537,3.621,14.154,4.736,21.611,5.213c18.65,1.194,37.494-1.4,55.211-7.306
							c15.015-5.005,29.053-12.909,43.323-19.993C535.249,346.296,534.579,342.994,533.716,339.669z"/>
					</g>
					<path style="fill:#E4EFF2;" d="M531.832,333.031c-1.95,1.089-4.088,2.254-6.423,3.479c-1.261-3.32-2.581-6.455-3.891-9.337
						c-1.382-2.976-2.739-5.687-4.021-8.063c-0.289,0.093-0.573,0.184-0.857,0.276c1.232,2.429,2.55,5.194,3.908,8.225
						c1.278,2.918,2.581,6.084,3.836,9.432c-2.46,1.277-5.097,2.605-7.951,3.97c-9.211,4.415-20.455,9.129-33.322,13.236
						c-6.42,2.066-13.256,4.02-20.511,4.901c-3.623,0.419-7.347,0.526-11.081,0.153c-3.734-0.358-7.452-1.318-10.979-2.834
						c-3.538-1.507-6.752-3.615-9.623-6.025c-2.869-2.418-5.405-5.15-7.573-8.075c-4.358-5.854-7.246-12.384-9.141-18.82
						c-1.903-6.448-2.864-12.807-3.429-18.771c-0.559-5.971-0.718-11.568-0.803-16.679c-0.066-5.054-0.126-9.674-0.18-13.809
						c-0.078-4.067-0.216-7.571-0.399-10.43c-0.173-2.86-0.402-5.074-0.572-6.573c-0.084-0.618-0.159-1.178-0.23-1.701
						c-0.002-0.012-0.003-0.019-0.005-0.031c-0.037,0.014-0.076,0.025-0.113,0.039c0,0.001,0,0.002,0,0.004
						c0.036,0.526,0.074,1.088,0.116,1.71c0.095,1.503,0.251,3.717,0.355,6.574c0.113,2.856,0.185,6.353,0.202,10.415
						c0.003,4.136,0.006,8.756,0.009,13.811c0.033,5.12,0.144,10.74,0.666,16.756c0.527,6.009,1.46,12.435,3.361,18.984
						c1.891,6.531,4.813,13.205,9.253,19.195c2.209,2.993,4.799,5.796,7.741,8.28c2.944,2.476,6.251,4.649,9.902,6.205
						c3.642,1.567,7.486,2.554,11.322,2.918c3.836,0.379,7.644,0.262,11.331-0.172c7.38-0.912,14.27-2.911,20.705-5.012
						c12.902-4.18,24.158-8.991,33.352-13.514c2.816-1.383,5.416-2.729,7.842-4.028c0.352,0.95,0.702,1.906,1.044,2.883
						c1.466,4.265,2.683,8.389,3.707,12.231c0.328-0.167,0.656-0.335,0.984-0.502c-0.973-3.816-2.152-7.897-3.6-12.108
						c-0.362-1.036-0.735-2.049-1.111-3.053c2.314-1.253,4.431-2.447,6.361-3.567C531.956,333.41,531.894,333.221,531.832,333.031z"
						/>
					
						<ellipse transform="matrix(0.9995 -0.0314 0.0314 0.9995 -9.0746 12.9767)" style="fill:#1F68EB;" cx="408.833" cy="295.559" rx="9.574" ry="12.845"/>
					<g>
						<path style="fill:#E4EFF2;" d="M516.964,358.194c-0.028-0.053-0.733,0.243-2.047,0.853c-1.314,0.609-3.224,1.559-5.747,2.647
							c-5.011,2.235-12.372,5.274-21.785,8.022c-2.338,0.736-4.842,1.312-7.427,1.997c-1.307,0.291-2.638,0.587-3.993,0.888
							c-1.353,0.318-2.743,0.58-4.162,0.828c-2.825,0.561-5.776,0.959-8.811,1.395c-3.048,0.331-6.183,0.689-9.415,0.854
							c-6.455,0.385-13.26,0.366-20.266-0.247c-0.875-0.087-1.753-0.175-2.635-0.263c-0.883-0.086-1.775-0.16-2.629-0.338
							c-0.864-0.154-1.732-0.307-2.603-0.462c-0.85-0.243-1.702-0.487-2.558-0.731c-3.38-1.108-6.628-2.769-9.568-4.954
							c-2.942-2.189-5.438-4.874-7.625-7.711c-1.121-1.403-2.065-2.923-3.031-4.407c-0.885-1.538-1.78-3.054-2.532-4.634
							c-3.167-6.259-5.106-12.756-6.848-19.024c-3.542-12.489-6.063-23.922-7.144-33.662c-1.097-9.735-0.858-17.705-0.139-23.133
							c0.199-1.3,0.383-2.499,0.551-3.599c0.15-1.046,0.392-1.907,0.521-2.619c0.291-1.416,0.417-2.17,0.36-2.187
							c-0.057-0.016-0.296,0.706-0.699,2.103c-0.184,0.702-0.482,1.558-0.687,2.601c-0.218,1.102-0.456,2.302-0.714,3.604
							c-0.933,5.449-1.364,13.513-0.412,23.358c0.935,9.849,3.353,21.402,6.825,33.962c1.694,6.259,3.647,12.944,6.866,19.351
							c0.766,1.62,1.682,3.184,2.589,4.768c0.992,1.535,1.964,3.103,3.124,4.563c2.262,2.946,4.864,5.749,7.954,8.051
							c3.088,2.298,6.519,4.051,10.084,5.211c0.902,0.256,1.801,0.51,2.696,0.764c0.915,0.161,1.827,0.321,2.735,0.481
							c0.911,0.184,1.808,0.255,2.702,0.34c0.894,0.086,1.785,0.173,2.672,0.258c7.101,0.598,13.99,0.582,20.515,0.149
							c3.267-0.189,6.433-0.576,9.509-0.937c3.063-0.466,6.038-0.898,8.884-1.495c1.429-0.265,2.829-0.546,4.191-0.883
							c1.362-0.321,2.701-0.636,4.016-0.946c2.598-0.724,5.112-1.342,7.458-2.121c9.441-2.92,16.774-6.152,21.719-8.585
							c2.49-1.186,4.357-2.236,5.622-2.947C516.343,358.645,516.993,358.246,516.964,358.194z"/>
					</g>
				</g>
				<g>
					<path style="opacity:0.41;fill:#FFFFFF;" d="M337.106,321.642L337.106,321.642c-4.811,0-8.712-3.9-8.712-8.712v-65.26h17.424
						v65.26C345.818,317.741,341.918,321.642,337.106,321.642z"/>
					<path style="fill:#33B7DB;" d="M337.106,316.645L337.106,316.645c-3.257,0-5.897-2.64-5.897-5.897v-51.129h11.795v51.129
						C343.004,314.005,340.363,316.645,337.106,316.645z"/>
					<path style="fill:#FFFFFF;" d="M346.448,249.763h-18.684c-1.031,0-1.867-0.836-1.867-1.867l0,0
						c0-1.031,0.836-1.867,1.867-1.867h18.684c1.031,0,1.867,0.836,1.867,1.867l0,0
						C348.315,248.927,347.479,249.763,346.448,249.763z"/>
					<path style="opacity:0.49;fill:#C3E7FD;" d="M318.766,358.43v-30.385h-15.51v30.385c-11.702,3.367-20.272,14.131-20.272,26.916
						c0,15.479,12.548,28.028,28.027,28.028s28.027-12.548,28.027-28.028C339.038,372.561,330.468,361.797,318.766,358.43z"/>
					<path style="fill:#1F68EB;" d="M305.811,384.835c-5.775,1-13.167,0.893-19.275-1.238c-0.041,0.58-0.088,1.159-0.088,1.75
						c0,13.566,10.997,24.563,24.563,24.563c13.566,0,24.563-10.997,24.563-24.563c0-2.525-0.383-4.96-1.091-7.253
						C324.873,379.22,314.615,383.31,305.811,384.835z"/>
					<path style="fill:#C3E7FD;" d="M319.497,331.583h-16.972c-1.563,0-2.831-1.267-2.831-2.831l0,0
						c0-1.563,1.267-2.831,2.831-2.831h16.972c1.563,0,2.831,1.267,2.831,2.831l0,0C322.327,330.315,321.06,331.583,319.497,331.583
						z"/>
					<path style="opacity:0.49;fill:#C3E7FD;" d="M431.251,397L431.251,397c-5.829,0-10.554-4.725-10.554-10.554v-79.059h21.108
						v79.059C441.805,392.275,437.08,397,431.251,397z"/>
					<path style="fill:#33B7DB;" d="M431.251,390.947L431.251,390.947c-3.946,0-7.145-3.199-7.145-7.145v-61.94h14.289v61.94
						C438.396,387.748,435.197,390.947,431.251,390.947z"/>
					<path style="fill:#C3E7FD;" d="M442.568,309.923h-22.635c-1.249,0-2.261-1.012-2.261-2.261l0,0
						c0-1.249,1.012-2.261,2.261-2.261h22.635c1.249,0,2.261,1.013,2.261,2.261l0,0C444.83,308.91,443.817,309.923,442.568,309.923z
						"/>
					<path style="opacity:0.49;fill:#C3E7FD;" d="M398.354,397L398.354,397c-5.829,0-10.554-4.725-10.554-10.554v-79.059h21.108
						v79.059C408.908,392.275,404.183,397,398.354,397z"/>
					<path style="fill:#1F68EB;" d="M398.354,390.947L398.354,390.947c-3.946,0-7.145-3.199-7.145-7.145v-61.94h14.289v61.94
						C405.499,387.748,402.3,390.947,398.354,390.947z"/>
					<path style="fill:#C3E7FD;" d="M409.672,309.923h-22.635c-1.249,0-2.261-1.012-2.261-2.261l0,0
						c0-1.249,1.012-2.261,2.261-2.261h22.635c1.249,0,2.261,1.013,2.261,2.261l0,0C411.933,308.91,410.921,309.923,409.672,309.923
						z"/>
					<path style="fill:#5182B7;" d="M366.423,254.712h-83.092c-3.271,0-5.923,2.652-5.923,5.923v0c0,3.271,2.652,5.923,5.923,5.923
						h83.092V254.712z"/>
					<path style="fill:#5182B7;" d="M455.337,351.709H276.811c-3.31,0-5.994-2.684-5.994-5.994v-2.19
						c0-3.31,2.684-5.994,5.994-5.994h178.525c3.31,0,5.994,2.684,5.994,5.994v2.19C461.33,349.025,458.647,351.709,455.337,351.709
						z"/>
					<path style="fill:#5B8BC9;" d="M366.074,431.775L366.074,431.775c-3.271,0-5.923-2.652-5.923-5.923V225.027
						c0-3.271,2.652-5.923,5.923-5.923l0,0c3.271,0,5.923,2.652,5.923,5.923v200.824
						C371.997,429.123,369.345,431.775,366.074,431.775z"/>
					<path style="fill:#5B8BC9;" d="M404.51,440.345h-76.872v-10.791c0-7.975,6.465-14.44,14.44-14.44h47.991
						c7.975,0,14.44,6.465,14.44,14.44V440.345z"/>
				</g>
				<path style="fill:#1F68EB;" d="M677.122,441.883H95.946c-4.211,0-7.624-3.414-7.624-7.624l0,0c0-4.211,3.413-7.624,7.624-7.624
					h581.177c4.211,0,7.624,3.414,7.624,7.624l0,0C684.746,438.47,681.333,441.883,677.122,441.883z"/>
				<path style="fill:#FFFFFF;" d="M619.787,158.392c-26.369,0-47.745,21.376-47.745,47.745c0,6.186,1.189,12.09,3.33,17.515
					l-11.25,19.764l20.593-4.893c8.723,9.441,21.204,15.359,35.071,15.359c26.369,0,47.745-21.376,47.745-47.745
					C667.532,179.768,646.156,158.392,619.787,158.392z"/>
				<g>
					<path style="fill:#1F68EB;" d="M623.248,205.282c0-2.565-2.08-4.645-4.645-4.645c-2.565,0-4.645,2.08-4.645,4.645
						c0,2.565,2.08,4.645,4.645,4.645C621.169,209.927,623.248,207.847,623.248,205.282z"/>
					<g>
						<path style="fill:#33B7DB;" d="M618.603,236.854c-6.184,0-11.027-13.868-11.027-31.572c0-17.704,4.844-31.572,11.027-31.572
							c6.184,0,11.028,13.868,11.028,31.572C629.631,222.986,624.786,236.854,618.603,236.854z M618.603,174.514
							c-5.541,0-10.223,14.089-10.223,30.767c0,16.678,4.682,30.768,10.223,30.768c5.542,0,10.224-14.09,10.224-30.768
							C628.827,188.604,624.145,174.514,618.603,174.514z"/>
					</g>
					<g>
						<path style="fill:#33B7DB;" d="M600.162,228.976c-1.669,0-2.976-0.461-3.884-1.37c-4.373-4.373,2.009-17.604,14.527-30.122
							c9.507-9.508,20.052-15.897,26.238-15.897c1.668,0,2.976,0.461,3.884,1.37c2.139,2.138,1.76,6.481-1.066,12.23
							c-2.763,5.621-7.543,11.975-13.461,17.892C616.893,222.588,606.349,228.976,600.162,228.976z M637.044,182.392
							c-5.987,0-16.303,6.293-25.67,15.661c-11.793,11.793-18.445,25.066-14.527,28.985c0.753,0.752,1.868,1.134,3.315,1.134
							c5.987,0,16.303-6.294,25.67-15.661c5.857-5.857,10.583-12.135,13.308-17.679c2.624-5.337,3.068-9.458,1.22-11.307
							C639.607,182.773,638.492,182.392,637.044,182.392z"/>
					</g>
					<g>
						<path style="fill:#33B7DB;" d="M618.603,216.31c-17.703,0-31.571-4.844-31.571-11.028c0-6.183,13.868-11.028,31.571-11.028
							c17.704,0,31.572,4.844,31.572,11.028C650.175,211.466,636.307,216.31,618.603,216.31z M618.603,195.058
							c-16.678,0-30.767,4.682-30.767,10.223c0,5.542,14.089,10.224,30.767,10.224c16.678,0,30.768-4.682,30.768-10.224
							C649.37,199.74,635.281,195.058,618.603,195.058z"/>
					</g>
					<g>
						<path style="fill:#33B7DB;" d="M637.044,228.976c-6.187,0-16.73-6.388-26.238-15.896
							c-5.918-5.917-10.698-12.271-13.461-17.892c-2.826-5.749-3.205-10.092-1.066-12.23c0.908-0.909,2.216-1.37,3.884-1.37
							c6.187,0,16.732,6.389,26.238,15.897c12.519,12.518,18.9,25.749,14.527,30.122
							C640.02,228.515,638.713,228.976,637.044,228.976z M600.162,182.392c-1.447,0-2.563,0.381-3.315,1.134
							c-1.849,1.849-1.404,5.97,1.22,11.307c2.725,5.543,7.451,11.822,13.308,17.679c9.367,9.367,19.683,15.661,25.67,15.661
							c1.447,0,2.563-0.381,3.315-1.134c3.918-3.919-2.734-17.192-14.527-28.985C616.465,188.685,606.15,182.392,600.162,182.392z"
							/>
					</g>
					<path style="fill:#1F68EB;" d="M598.239,191.153c0-1.245-1.009-2.254-2.255-2.254c-1.245,0-2.255,1.009-2.255,2.254
						c0,1.245,1.009,2.255,2.255,2.255C597.23,193.408,598.239,192.398,598.239,191.153z"/>
					<path style="fill:#1F68EB;" d="M642.643,192.553c0-1.245-1.009-2.255-2.255-2.255c-1.245,0-2.255,1.009-2.255,2.255
						c0,1.245,1.009,2.255,2.255,2.255C641.634,194.807,642.643,193.798,642.643,192.553z"/>
					<path style="fill:#1F68EB;" d="M599,217.133c0-1.245-1.009-2.255-2.255-2.255c-1.245,0-2.255,1.009-2.255,2.255
						c0,1.245,1.009,2.255,2.255,2.255C597.991,219.388,599,218.378,599,217.133z"/>
					<path style="fill:#1F68EB;" d="M627.08,228.574c0-1.245-1.009-2.255-2.255-2.255c-1.245,0-2.254,1.009-2.254,2.255
						c0,1.245,1.009,2.254,2.254,2.254C626.071,230.828,627.08,229.819,627.08,228.574z"/>
				</g>
				<g>
					<path style="fill:#FFFFFF;" d="M168.441,195.439c17.44,0,31.734,13.431,33.128,30.512l13.845,7.033l-15.249,5.682
						c-4.238,13.488-16.838,23.273-31.724,23.273c-18.363,0-33.249-14.886-33.249-33.249S150.078,195.439,168.441,195.439z"/>
					<g>
						<path style="fill:#33B7DB;" d="M165.074,228.689c0-1.724,1.398-3.122,3.122-3.122c1.724,0,3.122,1.398,3.122,3.122
							c0,1.724-1.398,3.122-3.122,3.122C166.471,231.811,165.074,230.413,165.074,228.689z"/>
						<g>
							<path style="fill:#323B7C;" d="M160.783,228.689c0-11.9,3.256-21.221,7.413-21.221s7.412,9.322,7.412,21.221
								c0,11.9-3.256,21.222-7.412,21.222S160.783,240.589,160.783,228.689z M161.324,228.689c0,11.21,3.147,20.681,6.872,20.681
								c3.725,0,6.871-9.471,6.871-20.681c0-11.21-3.147-20.681-6.871-20.681C164.471,208.008,161.324,217.478,161.324,228.689z"/>
						</g>
						<g>
							<path style="fill:#323B7C;" d="M162.955,233.93c-3.978-3.977-7.191-8.248-9.048-12.026c-1.9-3.864-2.154-6.784-0.717-8.221
								c0.611-0.611,1.489-0.921,2.611-0.921c4.158,0,11.246,4.294,17.636,10.685c8.415,8.414,12.704,17.308,9.765,20.247
								c-0.61,0.611-1.489,0.921-2.611,0.921C176.433,244.615,169.345,240.321,162.955,233.93z M153.572,214.065
								c-1.242,1.243-0.944,4.013,0.82,7.6c1.831,3.726,5.008,7.946,8.945,11.883c6.296,6.296,13.23,10.526,17.254,10.526
								c0.973,0,1.722-0.256,2.229-0.762c2.633-2.634-1.838-11.556-9.765-19.483c-6.296-6.296-13.23-10.527-17.254-10.527
								C154.828,213.303,154.078,213.559,153.572,214.065z"/>
						</g>
						<g>
							<path style="fill:#323B7C;" d="M146.974,228.689c0-4.156,9.322-7.413,21.222-7.413c11.899,0,21.221,3.256,21.221,7.413
								c0,4.157-9.322,7.413-21.221,7.413C156.296,236.101,146.974,232.845,146.974,228.689z M147.515,228.689
								c0,3.725,9.471,6.872,20.681,6.872c11.21,0,20.68-3.147,20.68-6.872c0-3.725-9.47-6.872-20.68-6.872
								C156.986,221.817,147.515,224.964,147.515,228.689z"/>
						</g>
						<g>
							<path style="fill:#323B7C;" d="M153.19,243.694c-2.939-2.939,1.35-11.833,9.765-20.247
								c6.39-6.391,13.478-10.685,17.636-10.685c1.121,0,2,0.31,2.611,0.921c1.438,1.437,1.183,4.357-0.717,8.221
								c-1.857,3.778-5.07,8.049-9.048,12.026c-6.391,6.391-13.478,10.685-17.636,10.685
								C154.679,244.615,153.8,244.305,153.19,243.694z M163.337,223.829c-7.927,7.927-12.398,16.849-9.765,19.483
								c0.506,0.506,1.256,0.762,2.229,0.762c4.024,0,10.958-4.23,17.254-10.526c3.936-3.937,7.114-8.157,8.945-11.883
								c1.764-3.587,2.062-6.357,0.82-7.6c-0.506-0.506-1.256-0.762-2.229-0.762C176.567,213.303,169.633,217.533,163.337,223.829z"
								/>
						</g>
						<path style="fill:#33B7DB;" d="M181.884,219.192c0-0.837,0.678-1.515,1.515-1.515c0.837,0,1.515,0.678,1.515,1.515
							c0,0.837-0.678,1.516-1.515,1.516C182.562,220.707,181.884,220.029,181.884,219.192z"/>
						<circle style="fill:#33B7DB;" cx="153.552" cy="220.133" r="1.515"/>
						<path style="fill:#33B7DB;" d="M181.372,236.655c0-0.837,0.678-1.515,1.515-1.515s1.515,0.678,1.515,1.515
							c0,0.837-0.679,1.516-1.515,1.516S181.372,237.492,181.372,236.655z"/>
						<path style="fill:#33B7DB;" d="M162.498,244.345c0-0.837,0.678-1.516,1.516-1.516c0.837,0,1.515,0.678,1.515,1.516
							c0,0.837-0.678,1.515-1.515,1.515C163.176,245.86,162.498,245.182,162.498,244.345z"/>
					</g>
				</g>
				<g>
					<path style="fill:#1F68EB;" d="M136.465,58.117c22.989,0,41.625,18.636,41.625,41.625c0,5.393-1.037,10.54-2.903,15.27
						l9.808,17.23l-17.954-4.265c-7.605,8.231-18.486,13.39-30.576,13.39c-22.989,0-41.625-18.636-41.625-41.625
						S113.476,58.117,136.465,58.117z"/>
					<g>
						<g>
							<g>
								<path style="fill:#FFFFFF;" d="M118.865,84.066c-2.58,11.28,2.814,23.55,9.956,32.082c0.829,0.99,2.236-0.433,1.414-1.414
									c-6.645-7.938-11.849-19.615-9.442-30.137C121.081,83.342,119.153,82.809,118.865,84.066L118.865,84.066z"/>
							</g>
							<g>
								<path style="fill:#FFFFFF;" d="M118.048,88.491c13.186-2.33,26.526,1.509,36.482,10.451
									c0.956,0.859,2.376-0.551,1.414-1.414c-10.529-9.457-24.499-13.426-38.428-10.965
									C116.248,86.786,116.787,88.714,118.048,88.491L118.048,88.491z"/>
							</g>
							<g>
								<path style="fill:#FFFFFF;" d="M127.426,119.212c13.606-2.511,25.256-10.793,32.15-22.78c0.644-1.12-1.084-2.127-1.727-1.01
									c-6.658,11.576-17.829,19.439-30.955,21.861C125.627,117.517,126.165,119.444,127.426,119.212L127.426,119.212z"/>
							</g>
						</g>
						<circle style="fill:#33B7DB;" cx="117.974" cy="86.897" r="7.037"/>
						<circle style="fill:#33B7DB;" cx="158.492" cy="95.655" r="7.037"/>
						<path style="fill:#33B7DB;" d="M135.561,117.523c0,3.152-2.555,5.706-5.706,5.706s-5.706-2.555-5.706-5.706
							c0-3.151,2.555-5.706,5.706-5.706S135.561,114.371,135.561,117.523z"/>
					</g>
				</g>
			</g>
		</g>
		<g style="opacity:0.44;">
			<g>
				<path style="fill:#C3E7FD;" d="M570.81,93.313c1.087,0,1.968-2.207,1.968-4.929s-0.881-4.929-1.968-4.929
					c-1.087,0-1.968,2.207-1.968,4.929S569.723,93.313,570.81,93.313z"/>
			</g>
			<g>
				<path style="fill:#C3E7FD;" d="M566.209,96.467c0-1.087-1.942-1.968-4.338-1.968c-2.396,0-4.338,0.881-4.338,1.968
					c0,1.087,1.942,1.967,4.338,1.967C564.267,98.435,566.209,97.554,566.209,96.467z"/>
			</g>
			<g>
				<path style="fill:#C3E7FD;" d="M582.716,96.205c0-1.156-1.832-2.093-4.092-2.093c-2.26,0-4.092,0.937-4.092,2.093
					c0,1.156,1.832,2.093,4.092,2.093C580.884,98.298,582.716,97.361,582.716,96.205z"/>
			</g>
			<g>
				<path style="fill:#C3E7FD;" d="M570.941,109.743c1.087,0,1.968-2.148,1.968-4.798c0-2.65-0.881-4.798-1.968-4.798
					c-1.087,0-1.968,2.148-1.968,4.798C568.974,107.595,569.855,109.743,570.941,109.743z"/>
			</g>
		</g>
		<g style="opacity:0.44;">
			<g>
				<path style="fill:#C3E7FD;" d="M161.468,166.251c1.087,0,1.968-2.207,1.968-4.929c0-2.722-0.881-4.929-1.968-4.929
					c-1.087,0-1.968,2.207-1.968,4.929C159.501,164.044,160.382,166.251,161.468,166.251z"/>
			</g>
			<g>
				<path style="fill:#C3E7FD;" d="M156.868,169.405c0-1.087-1.942-1.968-4.338-1.968c-2.396,0-4.338,0.881-4.338,1.968
					c0,1.087,1.942,1.967,4.338,1.967C154.926,171.373,156.868,170.492,156.868,169.405z"/>
			</g>
			<g>
				<path style="fill:#C3E7FD;" d="M173.374,169.142c0-1.156-1.832-2.093-4.092-2.093c-2.26,0-4.092,0.937-4.092,2.093
					c0,1.156,1.832,2.093,4.092,2.093C171.542,171.236,173.374,170.298,173.374,169.142z"/>
			</g>
			<g>
				<path style="fill:#C3E7FD;" d="M161.6,182.681c1.087,0,1.968-2.148,1.968-4.798s-0.881-4.798-1.968-4.798
					c-1.087,0-1.967,2.148-1.967,4.798S160.513,182.681,161.6,182.681z"/>
			</g>
		</g>
		<g style="opacity:0.44;">
			<g>
				<path style="fill:#C3E7FD;" d="M462.015,51.545c1.087,0,1.968-2.207,1.968-4.929c0-2.722-0.881-4.929-1.968-4.929
					c-1.087,0-1.967,2.207-1.967,4.929C460.048,49.338,460.929,51.545,462.015,51.545z"/>
			</g>
			<g>
				<path style="fill:#C3E7FD;" d="M457.415,54.699c0-1.087-1.942-1.968-4.338-1.968c-2.396,0-4.338,0.881-4.338,1.968
					c0,1.087,1.942,1.968,4.338,1.968C455.473,56.667,457.415,55.786,457.415,54.699z"/>
			</g>
			<g>
				<path style="fill:#C3E7FD;" d="M473.921,54.436c0-1.156-1.832-2.094-4.092-2.094c-2.26,0-4.092,0.937-4.092,2.094
					c0,1.156,1.832,2.093,4.092,2.093C472.089,56.53,473.921,55.592,473.921,54.436z"/>
			</g>
			<g>
				<path style="fill:#C3E7FD;" d="M462.147,67.975c1.087,0,1.968-2.148,1.968-4.798s-0.881-4.798-1.968-4.798
					c-1.087,0-1.967,2.148-1.967,4.798S461.06,67.975,462.147,67.975z"/>
			</g>
		</g>
		<g style="opacity:0.44;">
			<g>
				<ellipse style="fill:#C3E7FD;" cx="224.972" cy="64.079" rx="1.967" ry="4.929"/>
			</g>
			<g>
				<path style="fill:#C3E7FD;" d="M220.371,72.163c0-1.087-1.942-1.968-4.338-1.968c-2.396,0-4.338,0.881-4.338,1.968
					c0,1.087,1.942,1.967,4.338,1.967C218.429,74.131,220.371,73.25,220.371,72.163z"/>
			</g>
			<g>
				<path style="fill:#C3E7FD;" d="M236.878,71.9c0-1.156-1.832-2.093-4.092-2.093c-2.26,0-4.092,0.937-4.092,2.093
					c0,1.156,1.832,2.093,4.092,2.093C235.046,73.994,236.878,73.057,236.878,71.9z"/>
			</g>
			<g>
				<path style="fill:#C3E7FD;" d="M225.103,85.439c1.087,0,1.968-2.148,1.968-4.798c0-2.65-0.881-4.798-1.968-4.798
					c-1.087,0-1.967,2.148-1.967,4.798C223.136,83.291,224.017,85.439,225.103,85.439z"/>
			</g>
		</g>
		<g style="opacity:0.44;">
			<g>
				<path style="fill:#C3E7FD;" d="M376.612,102.795c0.863,0,1.562-1.752,1.562-3.913c0-2.161-0.699-3.913-1.562-3.913
					c-0.863,0-1.562,1.752-1.562,3.913C375.05,101.043,375.749,102.795,376.612,102.795z"/>
			</g>
			<g>
				<path style="fill:#C3E7FD;" d="M372.96,105.299c0-0.863-1.542-1.562-3.443-1.562c-1.902,0-3.443,0.699-3.443,1.562
					c0,0.863,1.542,1.562,3.443,1.562C371.418,106.861,372.96,106.161,372.96,105.299z"/>
			</g>
			<g>
				<ellipse style="fill:#C3E7FD;" cx="382.814" cy="105.09" rx="3.248" ry="1.662"/>
			</g>
			<g>
				<path style="fill:#C3E7FD;" d="M376.716,115.837c0.863,0,1.562-1.705,1.562-3.808c0-2.103-0.699-3.808-1.562-3.808
					c-0.862,0-1.562,1.705-1.562,3.808C375.154,114.132,375.854,115.837,376.716,115.837z"/>
			</g>
		</g>
		<g style="opacity:0.44;">
			<g>
				<path style="fill:#C3E7FD;" d="M658.048,132.946c0.862,0,1.562-1.752,1.562-3.913c0-2.161-0.699-3.913-1.562-3.913
					c-0.863,0-1.562,1.752-1.562,3.913C656.486,131.194,657.185,132.946,658.048,132.946z"/>
			</g>
			<g>
				<path style="fill:#C3E7FD;" d="M654.396,135.45c0-0.863-1.542-1.562-3.443-1.562c-1.902,0-3.443,0.699-3.443,1.562
					c0,0.863,1.542,1.562,3.443,1.562C652.854,137.012,654.396,136.312,654.396,135.45z"/>
			</g>
			<g>
				<ellipse style="fill:#C3E7FD;" cx="664.25" cy="135.241" rx="3.248" ry="1.662"/>
			</g>
			<g>
				<path style="fill:#C3E7FD;" d="M658.152,145.988c0.863,0,1.562-1.705,1.562-3.808c0-2.103-0.699-3.808-1.562-3.808
					c-0.862,0-1.562,1.705-1.562,3.808C656.59,144.283,657.289,145.988,658.152,145.988z"/>
			</g>
		</g>
	</g>
</g>
</svg>
